<svg width="13" height="18" viewBox="0 0 13 18" fill="none" xmlns="http://www.w3.org/2000/svg">
<path d="M9.65 4.22989V3.31989C9.65 2.90229 9.56775 2.48877 9.40794 2.10296C9.24813 1.71714 9.01389 1.36658 8.7186 1.07129C8.42331 0.776003 8.07275 0.541766 7.68693 0.381956C7.30112 0.222146 6.8876 0.139893 6.47 0.139893C6.0524 0.139893 5.63888 0.222146 5.25307 0.381956C4.86725 0.541766 4.51669 0.776003 4.2214 1.07129C3.92611 1.36658 3.69187 1.71714 3.53206 2.10296C3.37225 2.48877 3.29 2.90229 3.29 3.31989V4.22989H0V17.0199H13V4.22989H9.65ZM4.29 3.31989C4.29 2.74172 4.51968 2.18723 4.92851 1.7784C5.33734 1.36957 5.89183 1.13989 6.47 1.13989C7.04817 1.13989 7.60266 1.36957 8.01149 1.7784C8.42032 2.18723 8.65 2.74172 8.65 3.31989V4.22989H4.29V3.31989ZM11.95 16.0199H1V5.22989H3.29H4.29H8.65H9.65H11.95V16.0199Z" fill="#362320"/>
</svg>
