<svg width="15" height="17" viewBox="0 0 15 17" fill="none" xmlns="http://www.w3.org/2000/svg">
<path d="M14.27 16.3998C14.27 16.1998 14.27 15.9598 14.19 15.6898C14.0524 14.663 13.7939 13.656 13.42 12.6898C12.9824 11.5297 12.2603 10.4981 11.32 9.68983C10.7659 9.22336 10.1278 8.86698 9.44 8.63983C10.1111 8.2454 10.6679 7.68291 11.0554 7.0078C11.4429 6.33269 11.6479 5.56825 11.65 4.78982C11.6571 3.99425 11.454 3.21091 11.0613 2.51895C10.6687 1.82699 10.1003 1.25094 9.41372 0.848989C8.72712 0.447042 7.94658 0.233446 7.15098 0.229784C6.35539 0.226122 5.57292 0.432523 4.88264 0.828132C4.19236 1.22374 3.61874 1.79454 3.21972 2.48285C2.82071 3.17117 2.61045 3.95261 2.61018 4.74821C2.60991 5.54382 2.81965 6.3254 3.2182 7.01398C3.61675 7.70257 4.18999 8.27375 4.88 8.66983C4.21538 8.89166 3.59566 9.2303 3.05 9.66983C2.10227 10.48 1.36751 11.51 0.91 12.6698C0.519847 13.6342 0.244619 14.6411 0.0900002 15.6698C0.0900002 15.9398 0.02 16.1698 0 16.3698V16.9198H14.35L14.27 16.3998ZM3.66 4.73983C3.65802 4.04279 3.86304 3.36085 4.24906 2.78046C4.63508 2.20007 5.18473 1.74736 5.82833 1.4797C6.47193 1.21204 7.18051 1.14149 7.86426 1.27699C8.548 1.41249 9.17612 1.74794 9.669 2.24082C10.1619 2.73371 10.4973 3.36183 10.6328 4.04557C10.7683 4.72931 10.6978 5.43789 10.4301 6.0815C10.1625 6.7251 9.70975 7.27475 9.12936 7.66077C8.54897 8.04679 7.86704 8.2518 7.17 8.24983C6.2399 8.24719 5.34865 7.87654 4.69097 7.21886C4.03329 6.56117 3.66264 5.66992 3.66 4.73983ZM1.11 15.9398C1.10507 15.9067 1.10507 15.873 1.11 15.8398C1.24673 14.883 1.49855 13.9462 1.86 13.0498C2.25547 12.0313 2.89402 11.125 3.72 10.4098C4.72685 9.61166 5.98612 9.20018 7.27 9.24983C8.53161 9.20638 9.76678 9.6181 10.75 10.4098C11.5628 11.1182 12.1851 12.0189 12.56 13.0298C12.9114 13.9268 13.1499 14.864 13.27 15.8198C13.27 15.8198 13.27 15.8998 13.27 15.9398H1.11Z" fill="#362320"/>
</svg>
