<svg width="43" height="28" viewBox="0 0 43 28" fill="none" xmlns="http://www.w3.org/2000/svg">
<path fill-rule="evenodd" clip-rule="evenodd" d="M16.226 19C14.5002 19 13.1001 20.3985 13.1001 22.1259C13.1001 23.8512 14.5006 25.2517 16.226 25.2517C17.9513 25.2517 19.3518 23.8512 19.3518 22.1259C19.3518 20.3985 17.9517 19 16.226 19ZM11.1001 22.1259C11.1001 19.2931 13.3965 17 16.226 17C19.0555 17 21.3518 19.2931 21.3518 22.1259C21.3518 24.9558 19.0559 27.2517 16.226 27.2517C13.3961 27.2517 11.1001 24.9558 11.1001 22.1259Z" fill="#362320"/>
<path fill-rule="evenodd" clip-rule="evenodd" d="M32.4955 19C30.7698 19 29.3696 20.3985 29.3696 22.1259C29.3696 23.8512 30.7702 25.2517 32.4955 25.2517C34.2208 25.2517 35.6214 23.8512 35.6214 22.1259C35.6214 20.3985 34.2212 19 32.4955 19ZM27.3696 22.1259C27.3696 19.2931 29.666 17 32.4955 17C35.325 17 37.6214 19.2931 37.6214 22.1259C37.6214 24.9558 35.3254 27.2517 32.4955 27.2517C29.6656 27.2517 27.3696 24.9558 27.3696 22.1259Z" fill="#362320"/>
<path fill-rule="evenodd" clip-rule="evenodd" d="M6 1V0H7H21H28.9236C35.307 0 38.9804 1.38792 40.9677 3.94602C42.9071 6.44255 43 9.79544 43 12.9761L42.9997 13H43V21V23H41H36V21H41V13H41.0003L41 12.9761C41 12.644 40.9984 12.3186 40.994 12H29L29 9.5L29 2.00007L28.9236 2H21H7H6V1ZM40.9129 10C40.7641 8.06184 40.3743 6.44222 39.3882 5.17299C38.1492 3.578 35.7791 2.33118 31 2.05654L31 10H40.9129ZM15 10H0V12H6L6 21V23H8H13V21H8V12H15V10ZM3 5H18V7H3V5ZM21 23H28V21H21V23Z" fill="#362320"/>
</svg>
