<svg width="31" height="31" viewBox="0 0 31 31" fill="none" xmlns="http://www.w3.org/2000/svg">
<path d="M15.0021 29.0041C22.7352 29.0041 29.0041 22.7352 29.0041 15.0021C29.0041 7.26894 22.7352 1 15.0021 1C7.26894 1 1 7.26894 1 15.0021C1 22.7352 7.26894 29.0041 15.0021 29.0041Z" stroke="#362320" stroke-width="2"/>
<path fill-rule="evenodd" clip-rule="evenodd" d="M15.1363 9.369C16.7923 9.369 18.1787 10.4489 18.2258 11.7754H18.8438H19.3008C19.2391 10.0571 17.7111 8.60285 15.6989 8.3721V7.0083L15.3008 7.00823C15.3333 7.00408 15.2734 7.0074 15.3008 7.00823L14.6148 7V8.37044C12.6051 8.59123 11.1058 10.0555 11.1666 11.7762C11.2 12.6884 11.6221 13.4795 12.3868 14.0647C13.1429 14.6432 14.1276 14.9802 14.9916 15.2342C16.0602 15.5497 16.7778 15.8651 17.2505 16.227C17.795 16.6445 18.0391 17.0994 18.0622 17.7485C18.0819 18.3005 17.8601 18.8384 17.4371 19.2625C16.8934 19.8087 16.0696 20.1217 15.1774 20.1217C13.5214 20.1217 12.1351 19.0368 12.0871 17.7012H11.4141H11C11.0617 19.4252 12.6034 20.8978 14.6148 21.1285V22.4882L15.2422 22.4915C15.5376 22.4915 15.6989 22.4915 15.6989 22.4915V21.1302C17.7086 20.9077 19.2088 19.4352 19.1471 17.7045C19.1137 16.7923 18.6907 16.0012 17.9269 15.416C17.1708 14.8383 16.1861 14.5013 15.3221 14.2465C14.2535 13.931 13.5359 13.6156 13.0633 13.2545C12.517 12.837 12.2746 12.3846 12.2515 11.7422C12.231 11.1902 12.4536 10.6523 12.8766 10.2281C13.4203 9.68194 14.2441 9.369 15.1363 9.369Z" fill="#362320"/>
<path d="M15.3008 7.00823L15.6989 7.0083V8.3721C17.7111 8.60285 19.2391 10.0571 19.3008 11.7754H18.8438H18.2258C18.1787 10.4489 16.7923 9.369 15.1363 9.369C14.2441 9.369 13.4203 9.68194 12.8766 10.2281C12.4536 10.6523 12.231 11.1902 12.2515 11.7422C12.2746 12.3846 12.517 12.837 13.0633 13.2545C13.5359 13.6156 14.2535 13.931 15.3221 14.2465C16.1861 14.5013 17.1708 14.8383 17.9269 15.416C18.6907 16.0012 19.1137 16.7923 19.1471 17.7045C19.2088 19.4352 17.7086 20.9077 15.6989 21.1302V22.4915C15.6989 22.4915 15.5376 22.4915 15.2422 22.4915L14.6148 22.4882V21.1285C12.6034 20.8978 11.0617 19.4252 11 17.7012H11.4141H12.0871C12.1351 19.0368 13.5214 20.1217 15.1774 20.1217C16.0696 20.1217 16.8934 19.8087 17.4371 19.2625C17.8601 18.8384 18.0819 18.3005 18.0622 17.7485C18.0391 17.0994 17.795 16.6445 17.2505 16.227C16.7778 15.8651 16.0602 15.5497 14.9916 15.2342C14.1276 14.9802 13.1429 14.6432 12.3868 14.0647C11.6221 13.4795 11.2 12.6884 11.1666 11.7762C11.1058 10.0555 12.6051 8.59123 14.6148 8.37044V7L15.3008 7.00823ZM15.3008 7.00823C15.2734 7.0074 15.3333 7.00408 15.3008 7.00823Z" stroke="#362320"/>
</svg>
