<svg width="32" height="28" viewBox="0 0 32 28" fill="none" xmlns="http://www.w3.org/2000/svg">
<path fill-rule="evenodd" clip-rule="evenodd" d="M23.7772 5.38104L31.6943 7.97239L31.0045 9.84968L24.896 7.60514L22.679 13.7446L20.7979 13.0653L23.7772 5.38104Z" fill="#362320"/>
<path fill-rule="evenodd" clip-rule="evenodd" d="M17.8366 2.72565C12.6309 0.810088 6.79433 2.78867 3.82666 7.47496C0.858997 12.1612 1.56565 18.2834 5.52288 22.1704C9.48011 26.0574 15.614 26.6543 20.2464 23.6032C24.8778 20.5527 26.7517 14.6833 24.7452 9.51349C24.4766 8.83611 24.1529 8.18194 23.7772 7.55758C23.4925 7.08436 23.6452 6.46991 24.1185 6.18516C24.5917 5.90041 25.2061 6.0532 25.4909 6.52642C25.9237 7.24578 26.2967 7.99954 26.6059 8.78007L26.6083 8.78627C28.958 14.8353 26.7659 21.7039 21.3465 25.2734C15.927 28.843 8.75097 28.1446 4.12139 23.5972C-0.508201 19.0498 -1.33492 11.8874 2.13697 6.40493C5.60886 0.922418 12.4371 -1.39233 18.5273 0.848693L17.8366 2.72565Z" fill="#362320"/>
<path fill-rule="evenodd" clip-rule="evenodd" d="M15.8728 8.06204C13.1819 7.07184 10.1648 8.09461 8.63079 10.5171C7.09673 12.9395 7.46202 16.1042 9.5076 18.1135C11.5532 20.1227 14.7239 20.4313 17.1185 18.8541L18.2186 20.5243C15.0369 22.6199 10.824 22.21 8.10611 19.5403C5.38817 16.8706 4.90282 12.6657 6.9411 9.44703C8.97937 6.22836 12.9881 4.86942 16.5635 6.18508C16.583 6.19224 15.8728 8.06204 15.8728 8.06204Z" fill="#362320"/>
</svg>
