<svg width="37" height="36" viewBox="0 0 37 36" fill="none" xmlns="http://www.w3.org/2000/svg">
<path d="M16.95 35.9808C14.0249 35.9622 11.1597 35.15 8.66 33.6308C6.59606 32.3592 4.80616 30.689 3.39482 28.718C1.98348 26.7469 0.978992 24.5144 0.440003 22.1508C0.148171 20.8375 0.000629309 19.4962 3.23099e-06 18.1508C-0.0017325 15.2424 0.6959 12.3761 2.03408 9.79382C3.37225 7.2115 5.31173 4.9888 7.68898 3.31315C10.0662 1.63749 12.8115 0.55802 15.6934 0.165749C18.5753 -0.226521 21.5092 0.0799118 24.2479 1.05921C26.9865 2.03851 29.4495 3.66196 31.4292 5.79266C33.4089 7.92337 34.8472 10.4989 35.6229 13.302C36.3986 16.1051 36.489 19.0536 35.8863 21.8989C35.2836 24.7443 34.0056 27.4029 32.16 29.6508L32.09 29.6008C31.704 29.2752 31.4518 28.8186 31.3816 28.3185C31.3115 27.8184 31.4284 27.31 31.71 26.8908C33.4536 24.1946 34.3539 21.0399 34.296 17.8296C34.2381 14.6193 33.2246 11.4991 31.3849 8.86754C29.5452 6.23599 26.9629 4.21254 23.9677 3.05564C20.9725 1.89873 17.7005 1.66088 14.5695 2.37248C11.4385 3.08407 8.59065 4.71279 6.38973 7.05063C4.18881 9.38846 2.73471 12.3293 2.21314 15.4975C1.69158 18.6657 2.12623 21.9174 3.46157 24.8374C4.79692 27.7574 6.97235 30.2131 9.71 31.8908C12.5793 33.6902 16.0209 34.3435 19.35 33.7208C20.6495 33.5302 21.8296 32.8576 22.6559 31.8367C23.4822 30.8159 23.8942 29.5215 23.81 28.2108C21.24 28.3808 14.81 28.2108 12.35 22.1108C9.35 14.7508 14.58 8.69083 14.81 8.44083L15.95 7.21083L16.5 8.84083C17.4 11.4508 19.17 12.4208 21.23 13.5508C23.0383 14.3738 24.6151 15.6311 25.82 17.2108C27.32 19.3908 26.14 22.4108 26.09 22.5408L25.89 23.0408L25.35 23.1108C23.8715 23.4347 22.3278 23.2707 20.9504 22.6433C19.573 22.0159 18.4361 20.9589 17.71 19.6308C18.1495 19.4039 18.6482 19.3176 19.1383 19.3838C19.6285 19.45 20.0865 19.6654 20.45 20.0008C20.992 20.4597 21.6217 20.8035 22.3007 21.0115C22.9797 21.2195 23.694 21.2873 24.4 21.2108C24.5548 20.7345 24.6142 20.2323 24.5747 19.7329C24.5353 19.2336 24.3977 18.747 24.17 18.3008C23.1334 16.9984 21.7947 15.9686 20.27 15.3008C18.2593 14.4094 16.5502 12.954 15.35 11.1108C14.3545 12.6073 13.73 14.3196 13.5283 16.1056C13.3266 17.8916 13.5534 19.7 14.19 21.3808C16.63 27.3808 24.19 26.2008 24.53 26.1508L25.53 25.9908L25.71 26.9908C25.913 27.9493 25.9215 28.9388 25.735 29.9006C25.5485 30.8625 25.1709 31.7771 24.6244 32.5903C24.0779 33.4035 23.3738 34.0987 22.5536 34.6347C21.7335 35.1707 20.8141 35.5367 19.85 35.7108C18.8965 35.9092 17.9237 35.9997 16.95 35.9808Z" fill="#362320"/>
</svg>
