<svg width="31" height="36" viewBox="0 0 31 36" fill="none" xmlns="http://www.w3.org/2000/svg">
<path d="M25.09 20.01C25.0884 18.4255 25.5186 16.8705 26.3344 15.5121C27.1501 14.1537 28.3206 13.0432 29.72 12.3L30.72 11.74L29.19 5.46L27.85 5.64C27.6202 5.65488 27.3898 5.65488 27.16 5.64C25.9343 5.63179 24.7512 5.18919 23.8211 4.39088C22.8909 3.59257 22.274 2.49029 22.08 1.28L21.88 0H8.88L8.68 1.28C8.49454 2.50026 7.88027 3.61448 6.94743 4.4227C6.01458 5.23092 4.82423 5.68023 3.59 5.69C3.36359 5.70525 3.13641 5.70525 2.91 5.69L1.59 5.46L0 11.74L1 12.3C2.34098 13.0058 3.47515 14.0485 4.29094 15.3256C5.10672 16.6026 5.57604 18.0701 5.65272 19.5835C5.7294 21.097 5.41081 22.6043 4.72827 23.9573C4.04574 25.3103 3.02278 26.4623 1.76 27.3L0.88 27.89L2.8 35.59L4.67 34.17C5.81631 33.2857 7.22226 32.8042 8.67 32.8C9.67268 32.7998 10.6626 33.0253 11.5662 33.4598C12.4698 33.8943 13.2641 34.5267 13.89 35.31L14.34 35.88H16.34L16.79 35.31C17.4159 34.5267 18.2102 33.8943 19.1138 33.4598C20.0175 33.0253 21.0073 32.7998 22.01 32.8C23.4851 32.7864 24.922 33.2689 26.09 34.17L27.91 35.56L29.84 27.86L28.96 27.27C27.7667 26.4724 26.789 25.3923 26.1138 24.1257C25.4386 22.8591 25.0869 21.4453 25.09 20.01ZM26.7 32.17C25.1283 31.1658 23.2738 30.6972 21.4136 30.8342C19.5535 30.9711 17.7877 31.7064 16.38 32.93V26.17H14.38V32.88C12.9667 31.664 11.198 30.9379 9.338 30.8099C7.478 30.6819 5.62651 31.159 4.06 32.17L3.2 28.75C4.6533 27.7032 5.82173 26.3095 6.59894 24.6959C7.37616 23.0823 7.73748 21.2999 7.65002 19.5109C7.56256 17.722 7.0291 15.9834 6.09819 14.4532C5.16728 12.9231 3.86848 11.6501 2.32 10.75L3.08 7.7H3.59C5.22837 7.71193 6.82045 7.15686 8.09627 6.12891C9.37209 5.10096 10.2531 3.66341 10.59 2.06H14.39V9.06H16.39V2.06H20.19C20.5269 3.66341 21.4079 5.10096 22.6837 6.12891C23.9596 7.15686 25.5516 7.71193 27.19 7.7H27.71L28.47 10.75C26.9194 11.6483 25.6185 12.9207 24.686 14.4509C23.7535 15.9812 23.2191 17.7207 23.1316 19.5105C23.0441 21.3004 23.4063 23.0837 24.185 24.6976C24.9638 26.3115 26.1344 27.7047 27.59 28.75L26.7 32.17Z" fill="#362320"/>
<path d="M16.38 13.26H14.38V21.97H16.38V13.26Z" fill="#362320"/>
</svg>
