<svg width="18" height="16" viewBox="0 0 18 16" fill="none" xmlns="http://www.w3.org/2000/svg">
<path fill-rule="evenodd" clip-rule="evenodd" d="M16.2677 1.20872C16.9349 1.77407 17.4394 2.49575 17.7266 3.29576C17.9375 3.88332 18.0272 4.51403 17.9929 5.17038C17.9313 6.34809 17.4845 7.60816 16.6267 9.02258C15.1352 11.4819 12.7466 13.6976 9.32451 15.7962L8.99215 16L8.65981 15.7962C5.8777 14.0901 3.78566 12.3044 2.26415 10.3372C1.56438 9.43244 0.64284 8.03151 0.226494 6.49562C0.0163186 5.7203 -0.0480003 4.97527 0.0352835 4.28125C0.130402 3.48878 0.41811 2.75442 0.890431 2.09861C1.3514 1.45853 1.97536 0.927165 2.69481 0.561953C3.4148 0.196473 4.21903 0.00326498 5.02033 0.00326498H5.02035C5.98203 0.00326498 6.91741 0.268554 7.72542 0.770446C8.21156 1.07244 8.63876 1.45123 8.99083 1.88922C9.34298 1.45039 9.77048 1.07088 10.2571 0.768293C11.0655 0.265665 12.0016 0 12.964 0C13.2938 0 13.6238 0.0313223 13.9448 0.0931058C14.7966 0.257072 15.5998 0.64286 16.2677 1.20872ZM3.26145 9.60215C4.62956 11.3711 6.50667 12.9944 8.99219 14.5569C12.0636 12.6268 14.2115 10.6105 15.5514 8.40112C16.3035 7.16091 16.6939 6.08381 16.7449 5.10828C16.7708 4.6108 16.7044 4.13673 16.5473 3.69928C16.3318 3.09915 15.9519 2.5565 15.4486 2.13C14.945 1.70333 14.3414 1.41286 13.703 1.28997C13.4615 1.24349 13.2129 1.21992 12.964 1.21992C12.2398 1.21992 11.5359 1.41955 10.9284 1.79725C10.3362 2.1654 9.86049 2.68466 9.55251 3.29887L8.99193 4.41682L8.43035 3.29933C8.1221 2.68586 7.64632 2.16728 7.05452 1.79967C6.44738 1.42253 5.74397 1.22317 5.02035 1.22317C4.41884 1.22317 3.81404 1.36878 3.27131 1.64428C2.72879 1.91966 2.25897 2.31939 1.91268 2.80022C1.56115 3.28832 1.3471 3.83436 1.27642 4.4232C1.21144 4.96456 1.26464 5.55682 1.43453 6.18357C1.79896 7.52793 2.62915 8.78463 3.26145 9.60215Z" fill="#362320"/>
</svg>
