<svg width="18" height="17" viewBox="0 0 18 17" fill="none" xmlns="http://www.w3.org/2000/svg">
<path d="M12.6318 1.76001C12.8899 1.76303 13.1474 1.78643 13.4018 1.83001C14.0709 1.95392 14.6973 2.24648 15.2218 2.68001C15.7346 3.1069 16.1246 3.66258 16.3518 4.29001C16.5151 4.75155 16.5832 5.24142 16.5518 5.73001C16.432 6.91102 16.0233 8.04438 15.3618 9.03001C13.6746 11.5755 11.4097 13.6861 8.75178 15.19C6.54006 13.8846 4.58203 12.1908 2.97178 10.19C2.15825 9.18018 1.54096 8.02699 1.15178 6.79001C0.988182 6.21179 0.93392 5.60813 0.991778 5.01001C1.0591 4.40449 1.28696 3.82795 1.65178 3.34001C2.01524 2.83332 2.49546 2.4217 3.05178 2.14001C3.61943 1.88159 4.23825 1.75509 4.86178 1.77001C5.60971 1.7646 6.34417 1.969 6.98178 2.36001C7.36231 2.59083 7.70053 2.88508 7.98178 3.23001L8.76178 4.23001L9.54178 3.23001C9.8261 2.88806 10.1638 2.59428 10.5418 2.36001C11.1755 1.96729 11.9063 1.75948 12.6518 1.76001H12.6318ZM12.6518 0.76001C11.9082 0.760452 11.174 0.926747 10.5028 1.24678C9.83162 1.56682 9.24025 2.03253 8.77178 2.61001C8.42463 2.1749 8.00517 1.8028 7.53178 1.51001C6.72925 1.01676 5.80372 0.760241 4.86178 0.77001C4.07311 0.768464 3.29527 0.953502 2.59178 1.31001C1.90966 1.67357 1.31832 2.18629 0.861778 2.81001C0.405181 3.43982 0.119255 4.17703 0.0317779 4.95001C-0.0457034 5.67552 0.0188309 6.40917 0.221778 7.11001C0.638333 8.47814 1.31768 9.75191 2.22178 10.86C3.96 13.0082 6.07859 14.8184 8.47178 16.2L8.79178 16.4L9.12178 16.2C11.9932 14.5946 14.4381 12.3246 16.2518 9.58001C17.0036 8.45732 17.4641 7.16513 17.5918 5.82001C17.6284 5.19549 17.54 4.56993 17.3318 3.98001C17.0364 3.20072 16.5437 2.51154 15.9018 1.98001C15.2505 1.42897 14.469 1.05373 13.6318 0.89001C13.3023 0.826533 12.9673 0.796381 12.6318 0.80001L12.6518 0.76001Z" fill="#362320"/>
</svg>
