<svg width="16" height="16" viewBox="0 0 16 16" fill="none" xmlns="http://www.w3.org/2000/svg">
<path d="M8 15C11.866 15 15 11.866 15 8C15 4.13401 11.866 1 8 1C4.13401 1 1 4.13401 1 8C1 11.866 4.13401 15 8 15Z" stroke="#F25C05"/>
<path fill-rule="evenodd" clip-rule="evenodd" d="M6.07817 7.25899C5.83153 7.01235 5.43163 7.01235 5.18499 7.25899C4.93834 7.50564 4.93834 7.90553 5.18499 8.15218L7.16218 10.1294C7.40883 10.376 7.80873 10.376 8.05537 10.1294L11.1066 7.07811C11.3533 6.83146 11.3533 6.43157 11.1066 6.18492C10.86 5.93828 10.4601 5.93828 10.2135 6.18492L7.60878 8.78959L6.07817 7.25899Z" fill="#F25C05"/>
</svg>
