<svg width="37" height="40" viewBox="0 0 37 40" fill="none" xmlns="http://www.w3.org/2000/svg">
<path d="M33.85 4.92002C34.5709 4.30985 35.1593 3.55857 35.579 2.71243C35.9986 1.86629 36.2406 0.943202 36.29 1.49888e-05C35.7944 -0.0016773 35.3089 0.139963 34.8919 0.407872C34.475 0.675782 34.1444 1.05853 33.94 1.51002C33.5851 2.26357 33.0896 2.9424 32.48 3.51002C31.842 4.05969 31.128 4.51438 30.36 4.86001L17.69 3.03001L0 23.81L17.92 39.05L35.6 18.28L31.86 6.34002C32.5768 5.94648 33.2447 5.46986 33.85 4.92002ZM17.69 36.23L2.82 23.58L18.5 5.17002L27.36 6.45002C26.082 7.20554 24.92 8.1419 23.91 9.23001C23.5191 9.66147 23.1583 10.1192 22.83 10.6C22.1043 10.5109 21.368 10.5711 20.6664 10.7771C19.9648 10.9831 19.3128 11.3305 18.7505 11.7978C18.1881 12.2652 17.7274 12.8427 17.3965 13.4947C17.0657 14.1468 16.8717 14.8596 16.8266 15.5894C16.7815 16.3192 16.8862 17.0505 17.1343 17.7383C17.3823 18.4262 17.7685 19.056 18.269 19.589C18.7695 20.1221 19.3738 20.5471 20.0447 20.8379C20.7155 21.1287 21.4388 21.2791 22.17 21.28H22.61C23.6643 21.1884 24.6679 20.7867 25.4942 20.1256C26.3206 19.4645 26.9328 18.5736 27.2536 17.5651C27.5744 16.5566 27.5895 15.4758 27.2971 14.4587C27.0046 13.4417 26.4175 12.534 25.61 11.85C25.351 11.6307 25.0694 11.4397 24.77 11.28C24.95 11.04 25.14 10.82 25.34 10.6C26.6082 9.25267 28.122 8.15978 29.8 7.38002L30.02 7.28001L33.36 17.82L17.69 36.23ZM24.36 13.36C24.6985 13.6446 24.9771 13.9936 25.1797 14.3867C25.3822 14.7798 25.5047 15.2092 25.54 15.65C25.6101 16.5389 25.3262 17.4195 24.75 18.1C24.37 18.5493 23.8811 18.8936 23.33 19.1C23.1397 18.4007 23.0224 17.6835 22.98 16.96C22.9167 15.5803 23.1949 14.2064 23.79 12.96C23.9949 13.0708 24.1862 13.205 24.36 13.36ZM21.29 19.15C20.8188 19.0246 20.3816 18.7957 20.01 18.48C19.6714 18.196 19.3921 17.848 19.1882 17.4559C18.9842 17.0639 18.8597 16.6354 18.8216 16.1951C18.7835 15.7548 18.8326 15.3113 18.9662 14.89C19.0998 14.4687 19.3152 14.0779 19.6 13.74C20.1465 13.1016 20.9149 12.6942 21.75 12.6C21.1661 13.9977 20.8964 15.5066 20.96 17.02C21.0065 17.7371 21.1102 18.4494 21.27 19.15H21.29Z" fill="#362320"/>
</svg>
