<svg width="41" height="30" viewBox="0 0 41 30" fill="none" xmlns="http://www.w3.org/2000/svg">
<path d="M40.9914 9.68733V8.83156V0H0V8.83156V9.68733C0.684524 9.65923 1.36767 9.76978 2.00838 10.0124C2.6491 10.2549 3.23417 10.6245 3.72845 11.0989C4.22273 11.5733 4.61601 12.1427 4.88466 12.773C5.15332 13.4032 5.29181 14.0812 5.29181 14.7663C5.29181 15.4514 5.15332 16.1295 4.88466 16.7597C4.61601 17.3899 4.22273 17.9593 3.72845 18.4337C3.23417 18.9081 2.6491 19.2777 2.00838 19.5203C1.36767 19.7629 0.684524 19.8734 0 19.8453V20.7011V29.5412H41V20.7011V19.8453C39.689 19.7915 38.4497 19.2329 37.5411 18.2863C36.6326 17.3396 36.1252 16.0784 36.1252 14.7663C36.1252 13.4543 36.6326 12.193 37.5411 11.2464C38.4497 10.2998 39.689 9.74115 41 9.68733H40.9914ZM34.2052 14.7706C34.2064 16.273 34.7061 17.7326 35.626 18.9205C36.546 20.1083 37.8341 20.9573 39.2885 21.3344V27.8297H1.71154V21.3429C3.17521 20.9742 4.4739 20.1274 5.40172 18.9368C6.32953 17.7462 6.83338 16.28 6.83338 14.7706C6.83338 13.2612 6.32953 11.795 5.40172 10.6044C4.4739 9.41385 3.17521 8.56705 1.71154 8.19829V1.71154H39.2885V8.20685C37.8341 8.58388 36.546 9.43288 35.626 10.6207C34.7061 11.8086 34.2064 13.2682 34.2052 14.7706Z" fill="#362320"/>
<path d="M19.0409 10.5944C19.0409 9.88517 18.8306 9.19191 18.4366 8.60225C18.0426 8.01259 17.4826 7.553 16.8274 7.28161C16.1722 7.01022 15.4512 6.93921 14.7557 7.07757C14.0601 7.21592 13.4212 7.55742 12.9198 8.05889C12.4183 8.56036 12.0768 9.19926 11.9384 9.89482C11.8001 10.5904 11.8711 11.3113 12.1425 11.9665C12.4139 12.6217 12.8735 13.1817 13.4631 13.5757C14.0528 13.9697 14.746 14.18 15.4552 14.18C15.9261 14.18 16.3924 14.0873 16.8274 13.9071C17.2624 13.7269 17.6577 13.4628 17.9907 13.1298C18.3236 12.7968 18.5878 12.4016 18.768 11.9665C18.9482 11.5315 19.0409 11.0652 19.0409 10.5944ZM13.5811 10.5944C13.5811 10.2237 13.691 9.86133 13.8969 9.55313C14.1029 9.24493 14.3956 9.00472 14.738 8.86287C15.0805 8.72102 15.4573 8.68391 15.8208 8.75622C16.1844 8.82854 16.5183 9.00703 16.7804 9.26913C17.0425 9.53124 17.221 9.86518 17.2933 10.2287C17.3657 10.5923 17.3285 10.9691 17.1867 11.3116C17.0448 11.654 16.8046 11.9467 16.4964 12.1526C16.1882 12.3586 15.8259 12.4685 15.4552 12.4685C15.2091 12.4685 14.9654 12.42 14.738 12.3258C14.5106 12.2316 14.304 12.0936 14.13 11.9196C13.956 11.7455 13.8179 11.5389 13.7237 11.3116C13.6296 11.0842 13.5811 10.8405 13.5811 10.5944Z" fill="#362320"/>
<path d="M25.5448 15.9343C24.8352 15.9343 24.1416 16.1449 23.5518 16.5392C22.9619 16.9336 22.5024 17.4941 22.2312 18.1498C21.9601 18.8055 21.8896 19.5269 22.0286 20.2227C22.1677 20.9185 22.51 21.5574 23.0124 22.0585C23.5147 22.5596 24.1544 22.9005 24.8505 23.0378C25.5466 23.1752 26.2679 23.103 26.9229 22.8303C27.5779 22.5576 28.1374 22.0967 28.5303 21.5059C28.9233 20.9151 29.1322 20.221 29.1305 19.5115C29.1305 19.041 29.0377 18.5751 28.8574 18.1406C28.6771 17.706 28.4128 17.3113 28.0797 16.979C27.7466 16.6467 27.3513 16.3834 26.9163 16.2042C26.4813 16.0249 26.0153 15.9332 25.5448 15.9343ZM25.5448 21.3856C25.1741 21.3856 24.8118 21.2757 24.5036 21.0698C24.1954 20.8638 23.9551 20.5711 23.8133 20.2287C23.6715 19.8862 23.6343 19.5094 23.7067 19.1458C23.779 18.7823 23.9575 18.4483 24.2196 18.1862C24.4817 17.9241 24.8156 17.7456 25.1792 17.6733C25.5427 17.601 25.9195 17.6381 26.262 17.78C26.6044 17.9218 26.8971 18.162 27.1031 18.4702C27.309 18.7784 27.4189 19.1408 27.4189 19.5115C27.4189 20.0085 27.2215 20.4852 26.87 20.8367C26.5185 21.1881 26.0418 21.3856 25.5448 21.3856Z" fill="#362320"/>
<path d="M26.4524 7.20101L13.3021 21.6732L14.5688 22.8242L27.7191 8.35202L26.4524 7.20101Z" fill="#362320"/>
</svg>
