<svg width="27" height="41" viewBox="0 0 27 41" fill="none" xmlns="http://www.w3.org/2000/svg">
<path d="M26.98 13.5239C26.9858 11.2164 26.3996 8.94611 25.2775 6.92989C24.1554 4.91367 22.5349 3.21897 20.5709 2.0078C18.6069 0.796633 16.3651 0.109481 14.0597 0.0120366C11.7543 -0.0854081 9.4625 0.410112 7.4033 1.45123C5.3441 2.49234 3.58637 4.04425 2.29814 5.95858C1.00991 7.87292 0.234249 10.0857 0.0453058 12.3854C-0.143637 14.6851 0.260455 16.9948 1.21895 19.0937C2.17745 21.1926 3.65831 23.0106 5.51996 24.3739V40.7939L13.52 35.6239L21.52 40.7939V24.3739C23.2179 23.121 24.597 21.4858 25.5456 19.6009C26.4941 17.7159 26.9855 15.634 26.98 13.5239ZM19.46 37.1139L13.46 33.2439L7.45996 37.1139V25.6239C9.31247 26.5544 11.3569 27.039 13.43 27.039C15.5031 27.039 17.5475 26.5544 19.4 25.6239L19.46 37.1139ZM13.46 25.0139C11.1859 25.0099 8.96407 24.3318 7.07533 23.0654C5.18658 21.7989 3.71571 20.0008 2.84867 17.8986C1.98162 15.7963 1.75732 13.4841 2.20412 11.2544C2.65091 9.02468 3.74875 6.97747 5.35885 5.37156C6.96894 3.76566 9.01901 2.67316 11.2499 2.23218C13.4808 1.7912 15.7923 2.02153 17.8924 2.89405C19.9924 3.76658 21.7866 5.24213 23.0481 7.13417C24.3097 9.02622 24.9819 11.2498 24.98 13.5239C24.9773 16.5704 23.7659 19.4914 21.6117 21.6456C19.4575 23.7998 16.5365 25.0112 13.49 25.0139H13.46Z" fill="#362320"/>
<path d="M13.4899 6.91388C12.1826 6.91388 10.9046 7.30155 9.81763 8.02787C8.73062 8.75418 7.8834 9.78652 7.3831 10.9943C6.88281 12.2022 6.75191 13.5312 7.00696 14.8134C7.262 16.0956 7.89155 17.2734 8.81597 18.1979C9.7404 19.1223 10.9182 19.7518 12.2004 20.0069C13.4826 20.2619 14.8117 20.131 16.0195 19.6307C17.2273 19.1304 18.2596 18.2832 18.986 17.1962C19.7123 16.1092 20.0999 14.8312 20.0999 13.5239C20.0999 11.7708 19.4035 10.0895 18.1639 8.8499C16.9243 7.61029 15.243 6.91388 13.4899 6.91388ZM13.4899 18.1339C12.5782 18.1339 11.6869 17.8635 10.9288 17.357C10.1707 16.8504 9.57978 16.1304 9.23086 15.2881C8.88194 14.4457 8.79065 13.5188 8.96853 12.6245C9.1464 11.7303 9.58546 10.9088 10.2302 10.2641C10.8749 9.6194 11.6963 9.18034 12.5906 9.00246C13.4848 8.82458 14.4118 8.91587 15.2541 9.26479C16.0965 9.61371 16.8165 10.2046 17.323 10.9627C17.8296 11.7208 18.0999 12.6121 18.0999 13.5239C18.0973 14.7457 17.6108 15.9168 16.7468 16.7807C15.8828 17.6447 14.7118 18.1312 13.4899 18.1339Z" fill="#362320"/>
</svg>
