<svg width="35" height="36" viewBox="0 0 35 36" fill="none" xmlns="http://www.w3.org/2000/svg">
<path d="M17.36 25.5499C15.8544 25.5797 14.374 25.1603 13.1077 24.3453C11.8413 23.5303 10.8465 22.3565 10.25 20.9738C9.65349 19.591 9.48239 18.0619 9.75852 16.5815C10.0346 15.1011 10.7455 13.7365 11.8003 12.6617C12.8552 11.587 14.2063 10.8508 15.6813 10.5471C17.1563 10.2434 18.6883 10.3859 20.082 10.9565C21.4756 11.5271 22.6677 12.4999 23.5063 13.7507C24.3448 15.0016 24.7917 16.4739 24.79 17.9799C24.7992 18.9648 24.6144 19.9419 24.246 20.8554C23.8776 21.7689 23.3328 22.6008 22.6429 23.3038C21.953 24.0067 21.1313 24.5669 20.2249 24.9523C19.3184 25.3377 18.3449 25.5407 17.36 25.5499ZM17.36 12.3999C16.2505 12.37 15.1573 12.6718 14.2201 13.2665C13.283 13.8612 12.5445 14.7219 12.0991 15.7385C11.6536 16.7551 11.5215 17.8815 11.7196 18.9736C11.9176 20.0657 12.4369 21.0739 13.211 21.8694C13.985 22.6649 14.9787 23.2114 16.065 23.4391C17.1514 23.6669 18.2809 23.5655 19.3093 23.1479C20.3377 22.7303 21.2181 22.0156 21.8382 21.095C22.4582 20.1744 22.7896 19.0898 22.79 17.9799C22.8087 16.5202 22.2474 15.1128 21.2293 14.0666C20.2113 13.0204 18.8196 12.421 17.36 12.3999Z" fill="#362320"/>
<path d="M20.94 35.96H14.43L14.13 32.33C11.4449 31.7319 8.98355 30.3868 7.03 28.45L3.57 30.04L0.32 24.4L3.32 22.32C2.49173 19.6825 2.42243 16.8651 3.12 14.19L0 12.1L3.24 6.45L6.57 8C8.43326 5.96272 10.8363 4.49593 13.5 3.77L13.82 0H20.33L20.57 3.63C23.2551 4.22812 25.7164 5.57318 27.67 7.51L31.12 5.92L34.37 11.56L31.37 13.63C32.1871 16.2595 32.2529 19.0651 31.56 21.73L34.68 23.89L31.44 29.51L28.15 27.96C26.3017 29.986 23.9212 31.4518 21.28 32.19L20.94 35.96ZM16.27 33.96H19.11L19.31 31.76C19.3374 31.4142 19.4743 31.0862 19.7009 30.8237C19.9275 30.5611 20.232 30.3776 20.57 30.3C23.0143 29.672 25.2152 28.3278 26.89 26.44C27.1255 26.1709 27.4426 25.9862 27.7928 25.914C28.143 25.8418 28.5072 25.8861 28.83 26.04L30.69 26.91L32.09 24.49L30.25 23.19C29.9695 22.9997 29.754 22.7281 29.6324 22.4116C29.5109 22.0952 29.4891 21.7492 29.57 21.42C30.2516 18.9909 30.1889 16.4131 29.39 14.02C29.2945 13.6833 29.3079 13.325 29.4282 12.9963C29.5485 12.6677 29.7697 12.3855 30.06 12.19L31.74 11.01L30.32 8.55L28.32 9.48C28.0095 9.62242 27.6627 9.66619 27.3266 9.60539C26.9904 9.54459 26.681 9.38216 26.44 9.14C24.678 7.32482 22.409 6.084 19.93 5.58C19.5826 5.50485 19.2682 5.32079 19.0325 5.05461C18.7969 4.78842 18.6524 4.454 18.62 4.1L18.45 2.1H15.57L15.43 4.19C15.4024 4.5326 15.2678 4.85787 15.0453 5.11985C14.8228 5.38183 14.5236 5.56728 14.19 5.65C11.744 6.27398 9.54206 7.61884 7.87 9.51C7.63337 9.79603 7.30671 9.99331 6.94342 10.0696C6.58012 10.1459 6.20169 10.0967 5.87 9.93L4.02 9.05L2.65 11.49L4.46 12.73C4.74199 12.9253 4.95613 13.2035 5.07262 13.5261C5.18912 13.8487 5.20218 14.1996 5.11 14.53C4.42878 16.9626 4.49147 19.5434 5.29 21.94C5.40124 22.2794 5.40002 22.6457 5.28652 22.9844C5.17302 23.3231 4.9533 23.6161 4.66 23.82L2.98 24.99L4.4 27.46L6.4 26.53C6.71052 26.3876 7.05725 26.3438 7.39342 26.4046C7.72959 26.4654 8.03903 26.6278 8.28 26.87C10.0402 28.6803 12.3055 29.9175 14.78 30.42C15.1294 30.4967 15.4454 30.6823 15.6827 30.95C15.9199 31.2178 16.066 31.5539 16.1 31.91L16.27 33.96Z" fill="#362320"/>
</svg>
