<svg width="49" height="32" viewBox="0 0 49 32" fill="none" xmlns="http://www.w3.org/2000/svg">
<path d="M40.42 19.5045L48.26 14.0045L41.32 2.09451L41.23 1.93451H41.05C40.8529 1.98558 40.6591 2.04904 40.47 2.12451C39.3628 2.54156 38.1929 2.7681 37.01 2.79451C36.13 2.66263 35.2842 2.36032 34.52 1.90451C32.9239 1.00264 31.1407 0.482395 29.31 0.384514C27.6608 0.381667 26.0399 0.812762 24.61 1.63451C23.2597 0.699735 21.6869 0.137503 20.05 0.00451382C18.2111 -0.0463833 16.3857 0.333751 14.72 1.11451C13.9207 1.49897 13.055 1.72642 12.17 1.78451C10.9904 1.63542 9.84246 1.29779 8.77 0.784514L8.06 0.434514L0 11.9245L8 18.6345C7.57928 19.1145 7.31276 19.7101 7.23511 20.3437C7.15746 20.9772 7.27227 21.6195 7.56462 22.1869C7.85696 22.7544 8.3133 23.2207 8.87428 23.5252C9.43526 23.8298 10.0749 23.9584 10.71 23.8945C10.7477 24.3343 10.8766 24.7614 11.0884 25.1486C11.3001 25.5358 11.5902 25.8748 11.9401 26.1438C12.2901 26.4128 12.6921 26.606 13.1208 26.7112C13.5495 26.8163 13.9953 26.8311 14.43 26.7545C14.486 27.1733 14.6255 27.5767 14.8401 27.9406C15.0547 28.3046 15.3401 28.6219 15.6795 28.8736C16.0189 29.1253 16.4053 29.3064 16.8159 29.4062C17.2265 29.506 17.6529 29.5224 18.07 29.4545C18.6229 30.1325 19.3222 30.6764 20.1155 31.0453C20.9087 31.4142 21.7753 31.5986 22.65 31.5845C23.5073 31.5808 24.3571 31.425 25.16 31.1245C25.6663 31.2756 26.1917 31.353 26.72 31.3545C27.8319 31.3905 28.9214 31.0368 29.8 30.3545C30.3685 30.5566 30.9825 30.5943 31.5714 30.4635C32.1604 30.3326 32.7006 30.0383 33.13 29.6145C33.515 29.2364 33.7943 28.7641 33.94 28.2445C34.5302 28.5054 35.1852 28.5828 35.82 28.4669C36.4547 28.351 37.0401 28.0471 37.5 27.5945C37.9889 27.1268 38.3119 26.5124 38.42 25.8445C39.0915 25.9933 39.7931 25.9205 40.4196 25.6369C41.0461 25.3532 41.5639 24.8741 41.8951 24.2714C42.2263 23.6686 42.3532 22.9748 42.2567 22.2938C42.1602 21.6129 41.8456 20.9815 41.36 20.4945L40.42 19.5045ZM29.85 16.6745C29.6772 16.8487 29.5802 17.0841 29.5802 17.3295C29.5802 17.5749 29.6772 17.8103 29.85 17.9845L36.24 24.3645C36.4898 24.6156 36.63 24.9554 36.63 25.3095C36.63 25.6637 36.4898 26.0034 36.24 26.2545C35.9841 26.495 35.6462 26.6288 35.295 26.6288C34.9438 26.6288 34.6059 26.495 34.35 26.2545L28.99 20.8945C28.8089 20.7396 28.5784 20.6544 28.34 20.6544C28.1016 20.6544 27.8711 20.7396 27.69 20.8945C27.5172 21.0687 27.4202 21.3041 27.4202 21.5495C27.4202 21.7949 27.5172 22.0303 27.69 22.2045L31.87 26.3845C31.994 26.5076 32.0923 26.6541 32.1592 26.8154C32.2262 26.9768 32.2604 27.1498 32.26 27.3245C32.2662 27.5089 32.2349 27.6927 32.1678 27.8646C32.1008 28.0365 31.9994 28.193 31.87 28.3245C31.6141 28.565 31.2762 28.6988 30.925 28.6988C30.5738 28.6988 30.2359 28.565 29.98 28.3245L27.29 25.6345C27.1082 25.4769 26.8756 25.3901 26.635 25.3901C26.3944 25.3901 26.1618 25.4769 25.98 25.6345C25.8941 25.7195 25.826 25.8208 25.7796 25.9324C25.7333 26.044 25.7096 26.1637 25.71 26.2845C25.7114 26.5282 25.8083 26.7616 25.98 26.9345L28.26 29.2145C27.4084 29.6107 26.4356 29.6573 25.55 29.3445C24.55 28.8345 24.47 28.5445 24.47 28.5445C24.5228 28.3536 24.6037 28.1716 24.71 28.0045C25.39 26.8245 25.71 25.5145 23.71 24.0045C23.753 23.7972 23.7765 23.5862 23.78 23.3745C23.78 22.9095 23.6779 22.4502 23.4811 22.0289C23.2843 21.6076 22.9975 21.2346 22.6409 20.9362C22.2843 20.6377 21.8666 20.4211 21.4172 20.3016C20.9679 20.1821 20.4977 20.1626 20.04 20.2445C19.9519 19.5593 19.6389 18.9227 19.15 18.4345C18.5645 17.8513 17.7755 17.518 16.9491 17.505C16.1228 17.4919 15.3237 17.8001 14.72 18.3645C14.5591 17.9323 14.3067 17.54 13.98 17.2145C13.3822 16.6197 12.5733 16.2858 11.73 16.2858C10.8867 16.2858 10.0778 16.6197 9.48 17.2145L9.3 17.3945L2.47 11.6245L8.68 2.79451C9.74592 3.22493 10.8668 3.5043 12.01 3.62451C13.1907 3.61318 14.3546 3.34354 15.42 2.83451C16.8271 2.16066 18.37 1.81855 19.93 1.83451C21.017 1.94053 22.068 2.28175 23.01 2.83451C21.9221 3.77163 20.9816 4.86725 20.22 6.08451C19.66 6.96451 16.91 11.5345 17.7 13.9845C17.788 14.2844 17.9425 14.5607 18.152 14.7926C18.3615 15.0246 18.6206 15.2064 18.91 15.3245C19.3133 15.4889 19.7445 15.5738 20.18 15.5745C22.18 15.5745 23.59 13.8245 24.98 12.1245C25.92 10.9845 26.88 9.81451 27.78 9.50451L40.06 21.8045C40.3091 22.0539 40.4491 22.392 40.4491 22.7445C40.4491 23.097 40.3091 23.4351 40.06 23.6845C39.8064 23.9295 39.4676 24.0665 39.115 24.0665C38.7624 24.0665 38.4236 23.9295 38.17 23.6845L31.17 16.6845C30.9887 16.5228 30.7548 16.4326 30.5119 16.4308C30.269 16.4289 30.0337 16.5156 29.85 16.6745ZM14.85 24.5745C14.5941 24.815 14.2562 24.9488 13.905 24.9488C13.5538 24.9488 13.2159 24.815 12.96 24.5745C12.7102 24.3234 12.57 23.9837 12.57 23.6295C12.57 23.2754 12.7102 22.9356 12.96 22.6845L15.96 19.6845C16.1509 19.4963 16.3939 19.3696 16.6576 19.321C16.9213 19.2723 17.1935 19.3039 17.439 19.4116C17.6845 19.5193 17.8921 19.6981 18.0349 19.9251C18.1777 20.152 18.2492 20.4166 18.24 20.6845C18.2398 21.0372 18.0995 21.3753 17.85 21.6245L14.85 24.5745ZM9.48 19.7845L10.82 18.4345C11.0711 18.1848 11.4108 18.0446 11.765 18.0446C12.1192 18.0446 12.4589 18.1848 12.71 18.4345C12.9592 18.688 13.0991 19.029 13.1 19.3845C13.1004 19.5592 13.0662 19.7323 12.9992 19.8936C12.9323 20.055 12.834 20.2014 12.71 20.3245L11.42 21.6745C11.1658 21.9143 10.8295 22.0479 10.48 22.0479C10.1305 22.0479 9.79424 21.9143 9.54 21.6745C9.41391 21.5515 9.3137 21.4046 9.24528 21.2423C9.17686 21.08 9.14162 20.9056 9.14162 20.7295C9.14162 20.5534 9.17686 20.379 9.24528 20.2167C9.3137 20.0544 9.41391 19.9075 9.54 19.7845H9.48ZM16.66 25.3745L19.66 22.3745C19.9135 22.1254 20.2545 21.9854 20.61 21.9845C20.9626 21.9848 21.3008 22.125 21.55 22.3745C21.7992 22.628 21.9391 22.969 21.94 23.3245C21.9398 23.6772 21.7995 24.0153 21.55 24.2645L18.55 27.2645C18.2941 27.505 17.9562 27.6388 17.605 27.6388C17.2538 27.6388 16.9159 27.505 16.66 27.2645C16.4116 27.0121 16.2732 26.6716 16.275 26.3174C16.2769 25.9633 16.4189 25.6243 16.67 25.3745H16.66ZM19.85 28.5645L22.85 25.5645C23.59 26.1945 23.44 26.4545 23.1 27.0545C22.8913 27.3385 22.7465 27.6643 22.6758 28.0096C22.605 28.3548 22.6098 28.7113 22.69 29.0545C22.7672 29.3145 22.8965 29.5561 23.07 29.7645C22.4783 29.8299 21.8795 29.7623 21.3173 29.5668C20.755 29.3713 20.2435 29.0528 19.82 28.6345L19.85 28.5645ZM28.69 7.83451C28.4981 7.65463 28.243 7.55763 27.98 7.56451C26.19 7.68451 24.83 9.33451 23.51 10.9345C22.39 12.3045 21.23 13.7145 20.14 13.7145C19.944 13.7121 19.7503 13.6714 19.57 13.5945C19.57 13.5945 19.46 13.5945 19.41 13.4045C19.06 12.2945 20.32 9.30451 21.74 7.04451C22.87 5.25451 25.34 2.26451 29.31 2.26451C30.8673 2.3697 32.3796 2.83161 33.73 3.61451C34.7349 4.19851 35.8534 4.55999 37.01 4.67451C38.1668 4.65982 39.3153 4.47794 40.42 4.13451L45.86 13.4545L39.06 18.1845L28.69 7.83451Z" fill="#362320"/>
</svg>
