<svg width="43" height="32" viewBox="0 0 43 32" fill="none" xmlns="http://www.w3.org/2000/svg">
<path d="M38.826 6.78058H23.442C22.4075 4.74982 20.8341 3.04293 18.8941 1.84693C16.9541 0.650929 14.7224 0.0119506 12.4433 0C9.10969 0.0394937 5.92775 1.39935 3.59523 3.7814C1.26271 6.16344 -0.0300128 9.37325 0.000529137 12.707C-0.0209655 15.8012 1.0944 18.7957 3.13489 21.1219C5.17538 23.448 7.99895 24.9441 11.0696 25.3259V31.2259H39.187V14.5562H43L38.826 6.78058ZM1.76172 12.707C1.72881 9.83964 2.83521 7.07644 4.83795 5.02417C6.84069 2.97189 9.57604 1.79833 12.4433 1.76119C15.3106 1.79833 18.046 2.97189 20.0487 5.02417C22.0515 7.07644 23.1579 9.83964 23.125 12.707C23.1555 15.5728 22.0481 18.3338 20.0456 20.3841C18.0431 22.4345 15.3091 23.6068 12.4433 23.644C9.57759 23.6068 6.84358 22.4345 4.84109 20.3841C2.8386 18.3338 1.73116 15.5728 1.76172 12.707ZM12.8308 29.4383V25.3876C15.2826 25.3104 17.6544 24.4973 19.6378 23.054V29.4647L12.8308 29.4383ZM37.4258 29.4383H21.399V21.5129C23.2045 19.5987 24.3707 17.1709 24.7365 14.565H37.4258V29.4383ZM24.8862 12.7951V12.707C24.8822 11.29 24.6473 9.88313 24.1905 8.54178H37.7781L40.0588 12.7951H24.8862Z" fill="#362320"/>
<path d="M13.3239 18.2986V13.5874H18.0439V11.8262H13.3239V7.1062H11.5627V11.8262H6.84271V13.5874H11.5627V18.2986H13.3239Z" fill="#362320"/>
</svg>
