<svg width="15" height="18" viewBox="0 0 15 18" fill="none" xmlns="http://www.w3.org/2000/svg">
<path d="M14.5205 16.57L11.4705 12.41C12.2233 11.7392 12.8256 10.9164 13.2375 9.99603C13.6495 9.07562 13.8618 8.07839 13.8605 7.07C13.8697 6.15073 13.6978 5.23865 13.3545 4.38583C13.0112 3.53302 12.5033 2.75617 11.8598 2.09965C11.2163 1.44313 10.4498 0.919798 9.60397 0.559538C8.75819 0.199278 7.84973 0.0091467 6.93046 0C6.01119 0.0091467 5.10273 0.199278 4.25695 0.559538C3.41117 0.919798 2.64463 1.44313 2.00111 2.09965C1.35759 2.75617 0.849696 3.53302 0.506423 4.38583C0.163149 5.23865 -0.00877747 6.15073 0.00046115 7.07C-0.0101004 7.9901 0.160848 8.90326 0.503528 9.75723C0.846208 10.6112 1.35389 11.3892 1.99754 12.0468C2.64119 12.7044 3.40818 13.2286 4.25462 13.5895C5.10106 13.9504 6.01034 14.1409 6.93046 14.15C8.261 14.1485 9.56168 13.7555 10.6705 13.02L13.6705 17.16L14.5205 16.57ZM1.00046 7.07C0.991215 6.28205 1.13727 5.5 1.43029 4.76851C1.7233 4.03701 2.15754 3.3704 2.7082 2.80674C3.25886 2.24308 3.91516 1.7934 4.63962 1.4834C5.36408 1.1734 6.14251 1.00914 6.93046 1C7.71841 1.00914 8.49684 1.1734 9.2213 1.4834C9.94576 1.7934 10.6021 2.24308 11.1527 2.80674C11.7034 3.3704 12.1376 4.03701 12.4306 4.76851C12.7237 5.5 12.8697 6.28205 12.8605 7.07C12.871 7.85878 12.726 8.6419 12.4335 9.37456C12.1411 10.1072 11.7071 10.775 11.1563 11.3397C10.6055 11.9045 9.94875 12.355 9.22364 12.6656C8.49852 12.9763 7.71926 13.1409 6.93046 13.15C6.14166 13.1409 5.36241 12.9763 4.63729 12.6656C3.91217 12.355 3.25542 11.9045 2.70463 11.3397C2.15384 10.775 1.71981 10.1072 1.42739 9.37456C1.13497 8.6419 0.98989 7.85878 1.00046 7.07Z" fill="#362320"/>
</svg>
