<svg width="41" height="30" viewBox="0 0 41 30" fill="none" xmlns="http://www.w3.org/2000/svg">
<path d="M20.7524 13.9234C19.8967 13.641 17.8856 12.8708 17.8856 11.6984C17.8856 10.526 19.1778 9.91843 20.4529 9.91843C21.728 9.91843 22.9432 10.7143 23.0716 11.7241C23.0715 11.7395 23.0747 11.7547 23.0808 11.7687C23.0869 11.7828 23.0959 11.7955 23.1071 11.806C23.1184 11.8164 23.1317 11.8244 23.1462 11.8295C23.1607 11.8345 23.1761 11.8365 23.1914 11.8354H24.7232C24.7573 11.8354 24.7899 11.8218 24.814 11.7978C24.8381 11.7737 24.8516 11.741 24.8516 11.707C24.7445 10.8312 24.3507 10.0155 23.7315 9.38703C23.1123 8.75854 22.3026 8.35262 21.4285 8.23256H21.3771V6.39265C21.3771 6.3586 21.3636 6.32595 21.3396 6.30188C21.3155 6.27781 21.2828 6.26428 21.2488 6.26428H19.7341C19.7 6.26428 19.6674 6.27781 19.6433 6.30188C19.6192 6.32595 19.6057 6.3586 19.6057 6.39265V8.23256H19.5544C17.5005 8.56631 16.1313 9.9441 16.1313 11.7155C16.1313 12.9051 16.8416 14.5396 20.2304 15.635C21.0862 15.9088 23.0972 16.6876 23.0972 17.8514C23.0972 19.0153 21.805 19.64 20.5299 19.64C19.2548 19.64 18.0396 18.8441 17.9626 17.8258C17.9585 17.797 17.944 17.7708 17.922 17.7519C17.9 17.733 17.8718 17.7228 17.8428 17.7231H16.3024C16.2684 17.7231 16.2357 17.7366 16.2117 17.7607C16.1876 17.7847 16.1741 17.8174 16.1741 17.8514C16.2839 18.7261 16.6786 19.5403 17.2973 20.1683C17.916 20.7962 18.7242 21.203 19.5971 21.3259H19.6485V23.1829C19.6485 23.2169 19.662 23.2496 19.6861 23.2736C19.7102 23.2977 19.7428 23.3112 19.7769 23.3112H21.2659C21.2999 23.3112 21.3326 23.2977 21.3567 23.2736C21.3807 23.2496 21.3943 23.2169 21.3943 23.1829V21.3344H21.4456C23.4995 21.0092 24.8687 19.6229 24.8687 17.8429C24.8773 16.6619 24.1755 15.0188 20.7524 13.9234Z" fill="#362320"/>
<path d="M0 0V29.5412H41V0H0ZM39.2885 7.1029C37.9256 6.9131 36.6619 6.28401 35.6889 5.31105C34.716 4.3381 34.0869 3.07436 33.8971 1.71154H39.2885V7.1029ZM39.2885 8.81444V20.7097C37.4674 20.9061 35.7684 21.7193 34.4732 23.0145C33.1781 24.3096 32.3649 26.0087 32.1684 27.8297H8.83156C8.63666 26.0081 7.82389 24.3082 6.52848 23.0127C5.23307 21.7173 3.53313 20.9046 1.71154 20.7097V8.83156C3.53256 8.63514 5.23164 7.82188 6.52676 6.52676C7.82188 5.23164 8.63514 3.53256 8.83156 1.71154H32.1684C32.3664 3.53198 33.1801 5.23021 34.475 6.52504C35.7698 7.81987 37.468 8.63363 39.2885 8.83156V8.81444ZM7.1029 1.71154C6.9158 3.07545 6.28759 4.34067 5.31413 5.31413C4.34067 6.28759 3.07545 6.9158 1.71154 7.1029V1.71154H7.1029ZM1.71154 22.4383C3.07599 22.6241 4.34197 23.2518 5.31568 24.2255C6.28939 25.1993 6.91716 26.4652 7.1029 27.8297H1.71154V22.4383ZM33.8971 27.8297C34.0855 26.4663 34.7142 25.2018 35.6874 24.2286C36.6606 23.2554 37.9251 22.6268 39.2885 22.4383V27.8297H33.8971Z" fill="#362320"/>
</svg>
