<svg width="13" height="12" viewBox="0 0 13 12" fill="none" xmlns="http://www.w3.org/2000/svg">
<path fill-rule="evenodd" clip-rule="evenodd" d="M1.87725 5.21731L3.97746 6.03506C4.12791 6.09356 4.24147 6.22246 4.28257 6.38105L4.54892 7.40903C4.56112 7.29046 4.6139 7.17889 4.69964 7.09484L9.95642 1.94339L1.87725 5.21731ZM4.63951 7.75821L5.01861 9.22112L5.8354 8.62257L4.76588 7.88371C4.71617 7.84947 4.6736 7.80673 4.63951 7.75821ZM6.99653 8.19325L9.82792 10.1491L11.3554 1.98699L5.83855 7.39324L6.98319 8.18408C6.98779 8.187 6.9922 8.19013 6.99653 8.19325ZM10.1768 11.5156C10.0781 11.5156 9.98003 11.4859 9.89589 11.4277L6.71729 9.23201L5.01247 10.4813C4.87876 10.5792 4.70643 10.6038 4.55117 10.5473C4.39611 10.4906 4.27835 10.3599 4.23632 10.1977L3.3803 6.89394L0.321668 5.70288C0.129114 5.62787 0.00141276 5.44027 1.16431e-05 5.23024C-0.00138947 5.02035 0.123777 4.83091 0.315396 4.75332L11.9455 0.0404715C11.9982 0.0176411 12.0541 0.00445924 12.1104 0.000925968C12.1305 -0.000297089 12.1508 -0.000297089 12.1708 0.000858021C12.2875 0.00792457 12.402 0.0563033 12.4914 0.145518C12.5007 0.154827 12.5095 0.164272 12.5178 0.174056C12.5919 0.260282 12.6326 0.365329 12.6403 0.472346C12.6421 0.499186 12.642 0.526501 12.6397 0.553748C12.6381 0.573113 12.6353 0.592546 12.6315 0.611775L10.6684 11.1015C10.6368 11.27 10.5242 11.411 10.3686 11.4767C10.3069 11.5028 10.2417 11.5156 10.1768 11.5156Z" fill="#362320"/>
</svg>
