<svg width="12" height="12" viewBox="0 0 12 12" fill="none" xmlns="http://www.w3.org/2000/svg">
<path fill-rule="evenodd" clip-rule="evenodd" d="M10.8002 8.58089C10.8002 9.80451 9.80466 10.7999 8.58104 10.7999H3.27065C2.0471 10.8 1.05166 9.80451 1.05166 8.58089V3.27054C1.05166 2.04699 2.0471 1.05147 3.27065 1.05147H8.58097C9.80458 1.05147 10.8001 2.04699 10.8001 3.27054V8.58089H10.8002ZM8.58082 0H3.27051C1.46715 0 0 1.46716 0 3.2706V8.58094C0 10.3844 1.46715 11.8515 3.27051 11.8515H8.58082C10.3843 11.8515 11.8515 10.3843 11.8515 8.58094V3.2706C11.8515 1.46716 10.3843 0 8.58082 0Z" fill="#362320"/>
<path fill-rule="evenodd" clip-rule="evenodd" d="M8.79119 5.4314H7.63181V4.52808C7.63181 4.25103 7.92651 4.18665 8.06411 4.18665H8.69488C8.80058 4.18665 8.88627 4.10338 8.88627 4.00059V3.15281C8.88627 3.05037 8.80123 2.96717 8.69589 2.96668L7.94398 2.96289C6.65833 2.96289 6.36485 3.87183 6.36485 4.45471V5.43147H5.52862C5.47519 5.43147 5.43195 5.47353 5.43195 5.52541V6.59345C5.43195 6.64533 5.47519 6.68746 5.52862 6.68746H6.36485V11.3577H7.63181V6.68746H8.62435C8.6725 6.68746 8.71344 6.65319 8.72066 6.60693L8.8875 5.54044C8.89645 5.48301 8.85082 5.4314 8.79119 5.4314Z" fill="#362320"/>
</svg>
