<?xml version="1.0" encoding="UTF-8"?><!DOCTYPE svg PUBLIC "-//W3C//DTD SVG 1.1//EN" "http://www.w3.org/Graphics/SVG/1.1/DTD/svg11.dtd"><svg xmlns="http://www.w3.org/2000/svg" xmlns:xlink="http://www.w3.org/1999/xlink"><symbol id="icon-facebook" viewBox="0 0 10 19">
    <title>
        facebook
    </title>
    <path d="M9.766.157v2.946H8.014c-.64 0-1.071.134-1.295.402-.223.268-.335.67-.335 1.205v2.11h3.27l-.435 3.303H6.384v8.471H2.97v-8.47H.123V6.82H2.97V4.387c0-1.384.387-2.457 1.161-3.22C4.904.404 5.934.023 7.222.023c1.093 0 1.941.045 2.544.134z" fill-rule="evenodd"/>
</symbol><symbol id="icon-line" viewBox="0 0 68 1">
    <path d="M0 .5h68"/>
</symbol><symbol id="icon-love" viewBox="0 0 18 17">
    <path d="M12.632 1.76a4.9 4.9 0 0 1 .77.07 4 4 0 0 1 1.82.85c.513.427.903.983 1.13 1.61.163.462.231.951.2 1.44a7.231 7.231 0 0 1-1.19 3.3 19.38 19.38 0 0 1-6.61 6.16c-2.212-1.305-4.17-3-5.78-5a10.39 10.39 0 0 1-1.82-3.4 4.83 4.83 0 0 1-.16-1.78 3.42 3.42 0 0 1 .66-1.67 3.88 3.88 0 0 1 1.4-1.2 4.13 4.13 0 0 1 1.81-.37 4 4 0 0 1 3.12 1.46l.78 1 .78-1a4.13 4.13 0 0 1 1-.87 4 4 0 0 1 2.11-.6h-.02zm.02-1a5 5 0 0 0-3.88 1.85 4.85 4.85 0 0 0-1.24-1.1 5 5 0 0 0-2.67-.74 5 5 0 0 0-2.27.54 5.14 5.14 0 0 0-1.73 1.5 4.51 4.51 0 0 0-.83 2.14 5.62 5.62 0 0 0 .19 2.16 11 11 0 0 0 2 3.75 22.53 22.53 0 0 0 6.25 5.34l.32.2.33-.2a20.59 20.59 0 0 0 7.13-6.62 8.14 8.14 0 0 0 1.34-3.76 4.702 4.702 0 0 0-.26-1.84 4.81 4.81 0 0 0-1.43-2 5 5 0 0 0-2.27-1.09 5 5 0 0 0-1-.09l.02-.04z"/>
</symbol><symbol id="icon-shop" viewBox="0 0 13 18">
    <path d="M9.65 4.23v-.91a3.18 3.18 0 1 0-6.36 0v.91H0v12.79h13V4.23H9.65zm-5.36-.91a2.18 2.18 0 0 1 4.36 0v.91H4.29v-.91zm7.66 12.7H1V5.23h10.95v10.79z"/>
</symbol><symbol id="icon-stdown" viewBox="0 0 12 7">
    <path d="M1 1l5 5 5-5"/>
</symbol><symbol id="icon-user" viewBox="0 0 15 17">
    <path d="M14.27 16.4c0-.2 0-.44-.08-.71a13.154 13.154 0 0 0-.77-3 7.4 7.4 0 0 0-2.1-3 5.69 5.69 0 0 0-1.88-1.05 4.48 4.48 0 0 0 2.21-3.85 4.52 4.52 0 1 0-6.77 3.88 5.89 5.89 0 0 0-1.83 1 7.63 7.63 0 0 0-2.14 3c-.39.964-.665 1.971-.82 3 0 .27-.07.5-.09.7v.55h14.35l-.08-.52zM3.66 4.74a3.52 3.52 0 1 1 7.04-.02 3.52 3.52 0 0 1-7.04.02zm-2.55 11.2a.34.34 0 0 1 0-.1 12 12 0 0 1 .75-2.79 6.7 6.7 0 0 1 1.86-2.64 5.38 5.38 0 0 1 3.55-1.16 5.26 5.26 0 0 1 3.48 1.16 6.45 6.45 0 0 1 1.81 2.62c.351.897.59 1.834.71 2.79v.12H1.11z"/>
</symbol></svg>